<mxfile host="65bd71144e">
    <diagram name="PÃ¡gina-1" id="t1kIHyT1QOls8gjsTwmw">
        <mxGraphModel dx="1359" dy="1644" grid="1" gridSize="10" guides="1" tooltips="1" connect="1" arrows="1" fold="1" page="1" pageScale="1" pageWidth="827" pageHeight="1169" math="0" shadow="1">
            <root>
                <mxCell id="0"/>
                <mxCell id="1" parent="0"/>
                <mxCell id="2bgATZwEisg2KayfH_5u-1" value="Proveedores" style="rounded=0;whiteSpace=wrap;html=1;" parent="1" vertex="1">
                    <mxGeometry x="470" y="1310" width="100" height="40" as="geometry"/>
                </mxCell>
                <mxCell id="2bgATZwEisg2KayfH_5u-2" value="Tienda de accesorios" style="rounded=0;whiteSpace=wrap;html=1;" parent="1" vertex="1">
                    <mxGeometry x="470" y="690" width="100" height="40" as="geometry"/>
                </mxCell>
                <mxCell id="2bgATZwEisg2KayfH_5u-3" value="Deposito" style="rounded=0;whiteSpace=wrap;html=1;" parent="1" vertex="1">
                    <mxGeometry x="765" y="690" width="100" height="40" as="geometry"/>
                </mxCell>
                <mxCell id="2bgATZwEisg2KayfH_5u-4" value="Taller" style="rounded=0;whiteSpace=wrap;html=1;" parent="1" vertex="1">
                    <mxGeometry x="195" y="690" width="100" height="40" as="geometry"/>
                </mxCell>
                <mxCell id="2bgATZwEisg2KayfH_5u-5" value="Puesto" style="rounded=0;whiteSpace=wrap;html=1;" parent="1" vertex="1">
                    <mxGeometry x="1230" y="370" width="100" height="40" as="geometry"/>
                </mxCell>
                <mxCell id="2bgATZwEisg2KayfH_5u-6" value="Empleados" style="rounded=0;whiteSpace=wrap;html=1;" parent="1" vertex="1">
                    <mxGeometry x="870" y="370" width="100" height="40" as="geometry"/>
                </mxCell>
                <mxCell id="2bgATZwEisg2KayfH_5u-7" value="Facturacion" style="rounded=0;whiteSpace=wrap;html=1;" parent="1" vertex="1">
                    <mxGeometry x="1170" y="-535" width="100" height="40" as="geometry"/>
                </mxCell>
                <mxCell id="2bgATZwEisg2KayfH_5u-8" value="Metodo de pago" style="rounded=0;whiteSpace=wrap;html=1;" parent="1" vertex="1">
                    <mxGeometry x="830" y="-535" width="100" height="40" as="geometry"/>
                </mxCell>
                <mxCell id="2bgATZwEisg2KayfH_5u-9" value="Financiamiento" style="rounded=0;whiteSpace=wrap;html=1;" parent="1" vertex="1">
                    <mxGeometry x="470" y="-535" width="100" height="40" as="geometry"/>
                </mxCell>
                <mxCell id="2bgATZwEisg2KayfH_5u-119" style="edgeStyle=orthogonalEdgeStyle;rounded=0;orthogonalLoop=1;jettySize=auto;html=1;entryX=0.5;entryY=0;entryDx=0;entryDy=0;endArrow=none;startFill=1;startArrow=classic;" parent="1" source="2bgATZwEisg2KayfH_5u-10" target="2bgATZwEisg2KayfH_5u-116" edge="1">
                    <mxGeometry relative="1" as="geometry"/>
                </mxCell>
                <mxCell id="2bgATZwEisg2KayfH_5u-120" style="edgeStyle=orthogonalEdgeStyle;rounded=0;orthogonalLoop=1;jettySize=auto;html=1;entryX=0.5;entryY=0;entryDx=0;entryDy=0;endArrow=none;startFill=1;endFill=1;startArrow=classic;" parent="1" source="2bgATZwEisg2KayfH_5u-10" target="2bgATZwEisg2KayfH_5u-117" edge="1">
                    <mxGeometry relative="1" as="geometry">
                        <Array as="points">
                            <mxPoint x="490" y="440"/>
                            <mxPoint x="245" y="440"/>
                        </Array>
                    </mxGeometry>
                </mxCell>
                <mxCell id="2bgATZwEisg2KayfH_5u-121" style="edgeStyle=orthogonalEdgeStyle;rounded=0;orthogonalLoop=1;jettySize=auto;html=1;entryX=0.5;entryY=0;entryDx=0;entryDy=0;endArrow=none;startFill=1;startArrow=classic;" parent="1" source="2bgATZwEisg2KayfH_5u-10" target="2bgATZwEisg2KayfH_5u-115" edge="1">
                    <mxGeometry relative="1" as="geometry">
                        <Array as="points">
                            <mxPoint x="550" y="440"/>
                            <mxPoint x="815" y="440"/>
                        </Array>
                    </mxGeometry>
                </mxCell>
                <mxCell id="2bgATZwEisg2KayfH_5u-10" value="Vehiculos" style="rounded=0;whiteSpace=wrap;html=1;" parent="1" vertex="1">
                    <mxGeometry x="470" y="370" width="100" height="40" as="geometry"/>
                </mxCell>
                <mxCell id="2bgATZwEisg2KayfH_5u-11" value="Clientes" style="rounded=0;whiteSpace=wrap;html=1;" parent="1" vertex="1">
                    <mxGeometry x="50" y="370" width="100" height="40" as="geometry"/>
                </mxCell>
                <mxCell id="2bgATZwEisg2KayfH_5u-12" value="Telefono" style="ellipse;whiteSpace=wrap;html=1;" parent="1" vertex="1">
                    <mxGeometry x="-100" y="220" width="100" height="40" as="geometry"/>
                </mxCell>
                <mxCell id="2bgATZwEisg2KayfH_5u-13" value="Mail" style="ellipse;whiteSpace=wrap;html=1;" parent="1" vertex="1">
                    <mxGeometry x="-50" y="490" width="100" height="40" as="geometry"/>
                </mxCell>
                <mxCell id="2bgATZwEisg2KayfH_5u-14" value="DNI" style="ellipse;whiteSpace=wrap;html=1;" parent="1" vertex="1">
                    <mxGeometry x="-120" y="450" width="100" height="40" as="geometry"/>
                </mxCell>
                <mxCell id="2bgATZwEisg2KayfH_5u-15" value="Nombre" style="ellipse;whiteSpace=wrap;html=1;" parent="1" vertex="1">
                    <mxGeometry x="-140" y="260" width="100" height="40" as="geometry"/>
                </mxCell>
                <mxCell id="2bgATZwEisg2KayfH_5u-16" value="Apellido" style="ellipse;whiteSpace=wrap;html=1;" parent="1" vertex="1">
                    <mxGeometry x="-160" y="400" width="100" height="40" as="geometry"/>
                </mxCell>
                <mxCell id="2bgATZwEisg2KayfH_5u-21" style="edgeStyle=orthogonalEdgeStyle;rounded=0;orthogonalLoop=1;jettySize=auto;html=1;entryX=0;entryY=0.25;entryDx=0;entryDy=0;" parent="1" source="2bgATZwEisg2KayfH_5u-17" target="2bgATZwEisg2KayfH_5u-11" edge="1">
                    <mxGeometry relative="1" as="geometry"/>
                </mxCell>
                <mxCell id="2bgATZwEisg2KayfH_5u-17" value="Direccion" style="ellipse;whiteSpace=wrap;html=1;" parent="1" vertex="1">
                    <mxGeometry x="-170" y="300" width="100" height="40" as="geometry"/>
                </mxCell>
                <mxCell id="2bgATZwEisg2KayfH_5u-23" style="edgeStyle=orthogonalEdgeStyle;rounded=0;orthogonalLoop=1;jettySize=auto;html=1;entryX=0;entryY=0.5;entryDx=0;entryDy=0;" parent="1" source="2bgATZwEisg2KayfH_5u-18" target="2bgATZwEisg2KayfH_5u-11" edge="1">
                    <mxGeometry relative="1" as="geometry"/>
                </mxCell>
                <mxCell id="2bgATZwEisg2KayfH_5u-18" value="&lt;u&gt;ID_cliente&lt;/u&gt;" style="ellipse;whiteSpace=wrap;html=1;" parent="1" vertex="1">
                    <mxGeometry x="-170" y="350" width="100" height="40" as="geometry"/>
                </mxCell>
                <mxCell id="2bgATZwEisg2KayfH_5u-19" style="edgeStyle=orthogonalEdgeStyle;rounded=0;orthogonalLoop=1;jettySize=auto;html=1;entryX=0.411;entryY=-0.072;entryDx=0;entryDy=0;entryPerimeter=0;" parent="1" source="2bgATZwEisg2KayfH_5u-12" target="2bgATZwEisg2KayfH_5u-11" edge="1">
                    <mxGeometry relative="1" as="geometry"/>
                </mxCell>
                <mxCell id="2bgATZwEisg2KayfH_5u-22" style="edgeStyle=orthogonalEdgeStyle;rounded=0;orthogonalLoop=1;jettySize=auto;html=1;entryX=0.176;entryY=-0.043;entryDx=0;entryDy=0;entryPerimeter=0;" parent="1" source="2bgATZwEisg2KayfH_5u-15" target="2bgATZwEisg2KayfH_5u-11" edge="1">
                    <mxGeometry relative="1" as="geometry"/>
                </mxCell>
                <mxCell id="2bgATZwEisg2KayfH_5u-24" style="edgeStyle=orthogonalEdgeStyle;rounded=0;orthogonalLoop=1;jettySize=auto;html=1;entryX=0.152;entryY=1.016;entryDx=0;entryDy=0;entryPerimeter=0;" parent="1" source="2bgATZwEisg2KayfH_5u-16" target="2bgATZwEisg2KayfH_5u-11" edge="1">
                    <mxGeometry relative="1" as="geometry"/>
                </mxCell>
                <mxCell id="2bgATZwEisg2KayfH_5u-25" style="edgeStyle=orthogonalEdgeStyle;rounded=0;orthogonalLoop=1;jettySize=auto;html=1;entryX=0.388;entryY=1.075;entryDx=0;entryDy=0;entryPerimeter=0;" parent="1" source="2bgATZwEisg2KayfH_5u-14" target="2bgATZwEisg2KayfH_5u-11" edge="1">
                    <mxGeometry relative="1" as="geometry"/>
                </mxCell>
                <mxCell id="2bgATZwEisg2KayfH_5u-26" style="edgeStyle=orthogonalEdgeStyle;rounded=0;orthogonalLoop=1;jettySize=auto;html=1;entryX=0.599;entryY=1.016;entryDx=0;entryDy=0;entryPerimeter=0;" parent="1" source="2bgATZwEisg2KayfH_5u-13" target="2bgATZwEisg2KayfH_5u-11" edge="1">
                    <mxGeometry relative="1" as="geometry"/>
                </mxCell>
                <mxCell id="2bgATZwEisg2KayfH_5u-28" value="" style="endArrow=classic;html=1;rounded=0;entryX=1;entryY=0.5;entryDx=0;entryDy=0;exitX=0;exitY=0.5;exitDx=0;exitDy=0;" parent="1" source="2bgATZwEisg2KayfH_5u-29" target="2bgATZwEisg2KayfH_5u-11" edge="1">
                    <mxGeometry width="50" height="50" relative="1" as="geometry">
                        <mxPoint x="240.64136125654431" y="391.81282722513083" as="sourcePoint"/>
                        <mxPoint x="330" y="400" as="targetPoint"/>
                    </mxGeometry>
                </mxCell>
                <mxCell id="2bgATZwEisg2KayfH_5u-29" value="Compran" style="rhombus;whiteSpace=wrap;html=1;" parent="1" vertex="1">
                    <mxGeometry x="280" y="355" width="70" height="70" as="geometry"/>
                </mxCell>
                <mxCell id="2bgATZwEisg2KayfH_5u-31" value="" style="endArrow=none;html=1;rounded=0;entryX=0;entryY=0.5;entryDx=0;entryDy=0;exitX=1;exitY=0.5;exitDx=0;exitDy=0;" parent="1" source="2bgATZwEisg2KayfH_5u-29" target="2bgATZwEisg2KayfH_5u-10" edge="1">
                    <mxGeometry width="50" height="50" relative="1" as="geometry">
                        <mxPoint x="280" y="450" as="sourcePoint"/>
                        <mxPoint x="330" y="400" as="targetPoint"/>
                    </mxGeometry>
                </mxCell>
                <mxCell id="2bgATZwEisg2KayfH_5u-32" value="Color" style="ellipse;whiteSpace=wrap;html=1;" parent="1" vertex="1">
                    <mxGeometry x="380" y="200" width="100" height="40" as="geometry"/>
                </mxCell>
                <mxCell id="2bgATZwEisg2KayfH_5u-58" style="edgeStyle=orthogonalEdgeStyle;rounded=0;orthogonalLoop=1;jettySize=auto;html=1;entryX=0.75;entryY=0;entryDx=0;entryDy=0;" parent="1" source="2bgATZwEisg2KayfH_5u-33" target="2bgATZwEisg2KayfH_5u-10" edge="1">
                    <mxGeometry relative="1" as="geometry"/>
                </mxCell>
                <mxCell id="2bgATZwEisg2KayfH_5u-33" value="Precio" style="ellipse;whiteSpace=wrap;html=1;" parent="1" vertex="1">
                    <mxGeometry x="650" y="220" width="100" height="40" as="geometry"/>
                </mxCell>
                <mxCell id="2bgATZwEisg2KayfH_5u-34" value="Chasis" style="ellipse;whiteSpace=wrap;html=1;" parent="1" vertex="1">
                    <mxGeometry x="314" y="270" width="100" height="40" as="geometry"/>
                </mxCell>
                <mxCell id="2bgATZwEisg2KayfH_5u-70" style="edgeStyle=orthogonalEdgeStyle;rounded=0;orthogonalLoop=1;jettySize=auto;html=1;entryX=1;entryY=0.75;entryDx=0;entryDy=0;exitX=0;exitY=0.5;exitDx=0;exitDy=0;" parent="1" source="2bgATZwEisg2KayfH_5u-35" target="2bgATZwEisg2KayfH_5u-51" edge="1">
                    <mxGeometry relative="1" as="geometry">
                        <mxPoint x="609.9999999999995" y="-180" as="sourcePoint"/>
                    </mxGeometry>
                </mxCell>
                <mxCell id="2bgATZwEisg2KayfH_5u-35" value="Tipo_vehiculo" style="ellipse;whiteSpace=wrap;html=1;" parent="1" vertex="1">
                    <mxGeometry x="620" y="-250" width="100" height="40" as="geometry"/>
                </mxCell>
                <mxCell id="2bgATZwEisg2KayfH_5u-37" value="Patente" style="ellipse;whiteSpace=wrap;html=1;" parent="1" vertex="1">
                    <mxGeometry x="620" y="260" width="100" height="40" as="geometry"/>
                </mxCell>
                <mxCell id="2bgATZwEisg2KayfH_5u-38" value="&lt;u&gt;ID_vehiculo&lt;/u&gt;" style="ellipse;whiteSpace=wrap;html=1;" parent="1" vertex="1">
                    <mxGeometry x="300" y="230" width="100" height="40" as="geometry"/>
                </mxCell>
                <mxCell id="2bgATZwEisg2KayfH_5u-55" style="edgeStyle=orthogonalEdgeStyle;rounded=0;orthogonalLoop=1;jettySize=auto;html=1;entryX=1;entryY=0;entryDx=0;entryDy=0;" parent="1" source="2bgATZwEisg2KayfH_5u-41" target="2bgATZwEisg2KayfH_5u-10" edge="1">
                    <mxGeometry relative="1" as="geometry"/>
                </mxCell>
                <mxCell id="2bgATZwEisg2KayfH_5u-41" value="Motor" style="ellipse;whiteSpace=wrap;html=1;" parent="1" vertex="1">
                    <mxGeometry x="620" y="300" width="100" height="40" as="geometry"/>
                </mxCell>
                <mxCell id="2bgATZwEisg2KayfH_5u-73" style="edgeStyle=orthogonalEdgeStyle;rounded=0;orthogonalLoop=1;jettySize=auto;html=1;entryX=0;entryY=0.5;entryDx=0;entryDy=0;" parent="1" source="2bgATZwEisg2KayfH_5u-42" target="2bgATZwEisg2KayfH_5u-69" edge="1">
                    <mxGeometry relative="1" as="geometry"/>
                </mxCell>
                <mxCell id="2bgATZwEisg2KayfH_5u-42" value="&lt;u&gt;ID_marca&lt;/u&gt;" style="ellipse;whiteSpace=wrap;html=1;" parent="1" vertex="1">
                    <mxGeometry x="310" y="-50" width="100" height="40" as="geometry"/>
                </mxCell>
                <mxCell id="2bgATZwEisg2KayfH_5u-51" value="Modelo" style="rounded=0;whiteSpace=wrap;html=1;" parent="1" vertex="1">
                    <mxGeometry x="470" y="-260" width="100" height="40" as="geometry"/>
                </mxCell>
                <mxCell id="2bgATZwEisg2KayfH_5u-66" style="edgeStyle=orthogonalEdgeStyle;rounded=0;orthogonalLoop=1;jettySize=auto;html=1;" parent="1" source="2bgATZwEisg2KayfH_5u-52" target="2bgATZwEisg2KayfH_5u-51" edge="1">
                    <mxGeometry relative="1" as="geometry"/>
                </mxCell>
                <mxCell id="2bgATZwEisg2KayfH_5u-52" value="aÃ±o_vehiculo" style="ellipse;whiteSpace=wrap;html=1;" parent="1" vertex="1">
                    <mxGeometry x="320" y="-250" width="100" height="40" as="geometry"/>
                </mxCell>
                <mxCell id="2bgATZwEisg2KayfH_5u-65" style="edgeStyle=orthogonalEdgeStyle;rounded=0;orthogonalLoop=1;jettySize=auto;html=1;entryX=0;entryY=0.25;entryDx=0;entryDy=0;" parent="1" source="2bgATZwEisg2KayfH_5u-53" target="2bgATZwEisg2KayfH_5u-51" edge="1">
                    <mxGeometry relative="1" as="geometry"/>
                </mxCell>
                <mxCell id="2bgATZwEisg2KayfH_5u-53" value="&lt;u&gt;ID_modelo&lt;/u&gt;" style="ellipse;whiteSpace=wrap;html=1;" parent="1" vertex="1">
                    <mxGeometry x="320" y="-300" width="100" height="40" as="geometry"/>
                </mxCell>
                <mxCell id="2bgATZwEisg2KayfH_5u-54" style="edgeStyle=orthogonalEdgeStyle;rounded=0;orthogonalLoop=1;jettySize=auto;html=1;entryX=0.87;entryY=-0.091;entryDx=0;entryDy=0;entryPerimeter=0;" parent="1" source="2bgATZwEisg2KayfH_5u-37" target="2bgATZwEisg2KayfH_5u-10" edge="1">
                    <mxGeometry relative="1" as="geometry"/>
                </mxCell>
                <mxCell id="2bgATZwEisg2KayfH_5u-56" style="edgeStyle=orthogonalEdgeStyle;rounded=0;orthogonalLoop=1;jettySize=auto;html=1;entryX=0.094;entryY=-0.032;entryDx=0;entryDy=0;entryPerimeter=0;" parent="1" source="2bgATZwEisg2KayfH_5u-34" target="2bgATZwEisg2KayfH_5u-10" edge="1">
                    <mxGeometry relative="1" as="geometry"/>
                </mxCell>
                <mxCell id="2bgATZwEisg2KayfH_5u-59" style="edgeStyle=orthogonalEdgeStyle;rounded=0;orthogonalLoop=1;jettySize=auto;html=1;entryX=0.176;entryY=-0.032;entryDx=0;entryDy=0;entryPerimeter=0;" parent="1" source="2bgATZwEisg2KayfH_5u-38" target="2bgATZwEisg2KayfH_5u-10" edge="1">
                    <mxGeometry relative="1" as="geometry"/>
                </mxCell>
                <mxCell id="2bgATZwEisg2KayfH_5u-62" value="Posee" style="rhombus;whiteSpace=wrap;html=1;" parent="1" vertex="1">
                    <mxGeometry x="485" y="90" width="70" height="70" as="geometry"/>
                </mxCell>
                <mxCell id="2bgATZwEisg2KayfH_5u-63" value="" style="endArrow=none;html=1;rounded=0;entryX=0.5;entryY=1;entryDx=0;entryDy=0;exitX=0.5;exitY=0;exitDx=0;exitDy=0;" parent="1" source="2bgATZwEisg2KayfH_5u-10" target="2bgATZwEisg2KayfH_5u-62" edge="1">
                    <mxGeometry width="50" height="50" relative="1" as="geometry">
                        <mxPoint x="370" y="170" as="sourcePoint"/>
                        <mxPoint x="420" y="120" as="targetPoint"/>
                    </mxGeometry>
                </mxCell>
                <mxCell id="2bgATZwEisg2KayfH_5u-69" value="Marca" style="rounded=0;whiteSpace=wrap;html=1;" parent="1" vertex="1">
                    <mxGeometry x="470" y="-50" width="100" height="40" as="geometry"/>
                </mxCell>
                <mxCell id="2bgATZwEisg2KayfH_5u-71" style="edgeStyle=orthogonalEdgeStyle;rounded=0;orthogonalLoop=1;jettySize=auto;html=1;entryX=0.329;entryY=-0.091;entryDx=0;entryDy=0;entryPerimeter=0;" parent="1" source="2bgATZwEisg2KayfH_5u-32" target="2bgATZwEisg2KayfH_5u-10" edge="1">
                    <mxGeometry relative="1" as="geometry"/>
                </mxCell>
                <mxCell id="2bgATZwEisg2KayfH_5u-74" style="edgeStyle=orthogonalEdgeStyle;rounded=0;orthogonalLoop=1;jettySize=auto;html=1;entryX=1;entryY=0.5;entryDx=0;entryDy=0;" parent="1" source="2bgATZwEisg2KayfH_5u-72" target="2bgATZwEisg2KayfH_5u-69" edge="1">
                    <mxGeometry relative="1" as="geometry"/>
                </mxCell>
                <mxCell id="2bgATZwEisg2KayfH_5u-72" value="Tipo_marca" style="ellipse;whiteSpace=wrap;html=1;" parent="1" vertex="1">
                    <mxGeometry x="620" y="-50" width="100" height="40" as="geometry"/>
                </mxCell>
                <mxCell id="2bgATZwEisg2KayfH_5u-77" value="Estado_vehiculo" style="ellipse;whiteSpace=wrap;html=1;" parent="1" vertex="1">
                    <mxGeometry x="590" y="180" width="100" height="40" as="geometry"/>
                </mxCell>
                <mxCell id="2bgATZwEisg2KayfH_5u-78" style="edgeStyle=orthogonalEdgeStyle;rounded=0;orthogonalLoop=1;jettySize=auto;html=1;entryX=0.646;entryY=-0.003;entryDx=0;entryDy=0;entryPerimeter=0;" parent="1" source="2bgATZwEisg2KayfH_5u-77" target="2bgATZwEisg2KayfH_5u-10" edge="1">
                    <mxGeometry relative="1" as="geometry"/>
                </mxCell>
                <mxCell id="2bgATZwEisg2KayfH_5u-80" value="" style="endArrow=none;html=1;rounded=0;entryX=0.5;entryY=1;entryDx=0;entryDy=0;exitX=0.5;exitY=0;exitDx=0;exitDy=0;" parent="1" source="2bgATZwEisg2KayfH_5u-81" target="2bgATZwEisg2KayfH_5u-51" edge="1">
                    <mxGeometry width="50" height="50" relative="1" as="geometry">
                        <mxPoint x="460" y="-110" as="sourcePoint"/>
                        <mxPoint x="510" y="-160" as="targetPoint"/>
                    </mxGeometry>
                </mxCell>
                <mxCell id="2bgATZwEisg2KayfH_5u-81" value="Tiene" style="rhombus;whiteSpace=wrap;html=1;" parent="1" vertex="1">
                    <mxGeometry x="485" y="-170" width="70" height="70" as="geometry"/>
                </mxCell>
                <mxCell id="2bgATZwEisg2KayfH_5u-82" value="" style="endArrow=none;html=1;rounded=0;entryX=0.5;entryY=1;entryDx=0;entryDy=0;exitX=0.5;exitY=0;exitDx=0;exitDy=0;endFill=1;startFill=1;startArrow=classic;" parent="1" source="2bgATZwEisg2KayfH_5u-69" target="2bgATZwEisg2KayfH_5u-81" edge="1">
                    <mxGeometry width="50" height="50" relative="1" as="geometry">
                        <mxPoint x="400" y="-80" as="sourcePoint"/>
                        <mxPoint x="450" y="-130" as="targetPoint"/>
                    </mxGeometry>
                </mxCell>
                <mxCell id="2bgATZwEisg2KayfH_5u-83" value="Venden" style="rhombus;whiteSpace=wrap;html=1;" parent="1" vertex="1">
                    <mxGeometry x="690" y="355" width="70" height="70" as="geometry"/>
                </mxCell>
                <mxCell id="2bgATZwEisg2KayfH_5u-84" value="" style="endArrow=classic;html=1;rounded=0;entryX=0;entryY=0.5;entryDx=0;entryDy=0;exitX=1;exitY=0.5;exitDx=0;exitDy=0;" parent="1" source="2bgATZwEisg2KayfH_5u-83" target="2bgATZwEisg2KayfH_5u-6" edge="1">
                    <mxGeometry width="50" height="50" relative="1" as="geometry">
                        <mxPoint x="680" y="500" as="sourcePoint"/>
                        <mxPoint x="730" y="450" as="targetPoint"/>
                    </mxGeometry>
                </mxCell>
                <mxCell id="2bgATZwEisg2KayfH_5u-85" value="" style="endArrow=none;html=1;rounded=0;entryX=0;entryY=0.5;entryDx=0;entryDy=0;exitX=1;exitY=0.5;exitDx=0;exitDy=0;" parent="1" source="2bgATZwEisg2KayfH_5u-10" target="2bgATZwEisg2KayfH_5u-83" edge="1">
                    <mxGeometry width="50" height="50" relative="1" as="geometry">
                        <mxPoint x="620" y="500" as="sourcePoint"/>
                        <mxPoint x="670" y="450" as="targetPoint"/>
                    </mxGeometry>
                </mxCell>
                <mxCell id="2bgATZwEisg2KayfH_5u-86" value="&lt;u&gt;ID_empleados&lt;/u&gt;" style="ellipse;whiteSpace=wrap;html=1;" parent="1" vertex="1">
                    <mxGeometry x="770" y="300" width="100" height="40" as="geometry"/>
                </mxCell>
                <mxCell id="2bgATZwEisg2KayfH_5u-96" style="edgeStyle=orthogonalEdgeStyle;rounded=0;orthogonalLoop=1;jettySize=auto;html=1;entryX=0.5;entryY=0;entryDx=0;entryDy=0;" parent="1" source="2bgATZwEisg2KayfH_5u-87" target="2bgATZwEisg2KayfH_5u-6" edge="1">
                    <mxGeometry relative="1" as="geometry">
                        <Array as="points">
                            <mxPoint x="910" y="230"/>
                            <mxPoint x="910" y="310"/>
                            <mxPoint x="920" y="310"/>
                        </Array>
                    </mxGeometry>
                </mxCell>
                <mxCell id="2bgATZwEisg2KayfH_5u-87" value="Telefono" style="ellipse;whiteSpace=wrap;html=1;" parent="1" vertex="1">
                    <mxGeometry x="790" y="210" width="100" height="40" as="geometry"/>
                </mxCell>
                <mxCell id="2bgATZwEisg2KayfH_5u-88" value="Nombre" style="ellipse;whiteSpace=wrap;html=1;" parent="1" vertex="1">
                    <mxGeometry x="1020" y="310" width="100" height="40" as="geometry"/>
                </mxCell>
                <mxCell id="2bgATZwEisg2KayfH_5u-89" value="Apellido" style="ellipse;whiteSpace=wrap;html=1;" parent="1" vertex="1">
                    <mxGeometry x="1020" y="260" width="100" height="40" as="geometry"/>
                </mxCell>
                <mxCell id="2bgATZwEisg2KayfH_5u-90" value="Mail" style="ellipse;whiteSpace=wrap;html=1;" parent="1" vertex="1">
                    <mxGeometry x="990" y="220" width="100" height="40" as="geometry"/>
                </mxCell>
                <mxCell id="2bgATZwEisg2KayfH_5u-91" value="DNI" style="ellipse;whiteSpace=wrap;html=1;" parent="1" vertex="1">
                    <mxGeometry x="780" y="250" width="100" height="40" as="geometry"/>
                </mxCell>
                <mxCell id="2bgATZwEisg2KayfH_5u-94" style="edgeStyle=orthogonalEdgeStyle;rounded=0;orthogonalLoop=1;jettySize=auto;html=1;entryX=0.1;entryY=0;entryDx=0;entryDy=0;entryPerimeter=0;" parent="1" source="2bgATZwEisg2KayfH_5u-86" target="2bgATZwEisg2KayfH_5u-6" edge="1">
                    <mxGeometry relative="1" as="geometry"/>
                </mxCell>
                <mxCell id="2bgATZwEisg2KayfH_5u-95" style="edgeStyle=orthogonalEdgeStyle;rounded=0;orthogonalLoop=1;jettySize=auto;html=1;entryX=0.364;entryY=-0.091;entryDx=0;entryDy=0;entryPerimeter=0;" parent="1" source="2bgATZwEisg2KayfH_5u-91" target="2bgATZwEisg2KayfH_5u-6" edge="1">
                    <mxGeometry relative="1" as="geometry">
                        <Array as="points">
                            <mxPoint x="900" y="270"/>
                            <mxPoint x="900" y="330"/>
                            <mxPoint x="906" y="330"/>
                        </Array>
                    </mxGeometry>
                </mxCell>
                <mxCell id="2bgATZwEisg2KayfH_5u-97" style="edgeStyle=orthogonalEdgeStyle;rounded=0;orthogonalLoop=1;jettySize=auto;html=1;entryX=0.917;entryY=0.085;entryDx=0;entryDy=0;entryPerimeter=0;" parent="1" source="2bgATZwEisg2KayfH_5u-88" target="2bgATZwEisg2KayfH_5u-6" edge="1">
                    <mxGeometry relative="1" as="geometry"/>
                </mxCell>
                <mxCell id="2bgATZwEisg2KayfH_5u-98" style="edgeStyle=orthogonalEdgeStyle;rounded=0;orthogonalLoop=1;jettySize=auto;html=1;entryX=0.835;entryY=0.085;entryDx=0;entryDy=0;entryPerimeter=0;" parent="1" source="2bgATZwEisg2KayfH_5u-89" target="2bgATZwEisg2KayfH_5u-6" edge="1">
                    <mxGeometry relative="1" as="geometry">
                        <Array as="points">
                            <mxPoint x="950" y="290"/>
                            <mxPoint x="950" y="373"/>
                        </Array>
                    </mxGeometry>
                </mxCell>
                <mxCell id="2bgATZwEisg2KayfH_5u-99" style="edgeStyle=orthogonalEdgeStyle;rounded=0;orthogonalLoop=1;jettySize=auto;html=1;entryX=0.658;entryY=0.085;entryDx=0;entryDy=0;entryPerimeter=0;" parent="1" source="2bgATZwEisg2KayfH_5u-90" target="2bgATZwEisg2KayfH_5u-6" edge="1">
                    <mxGeometry relative="1" as="geometry"/>
                </mxCell>
                <mxCell id="2bgATZwEisg2KayfH_5u-100" value="Tiene" style="rhombus;whiteSpace=wrap;html=1;" parent="1" vertex="1">
                    <mxGeometry x="1060" y="355" width="70" height="70" as="geometry"/>
                </mxCell>
                <mxCell id="2bgATZwEisg2KayfH_5u-101" value="" style="endArrow=classic;html=1;rounded=0;entryX=0;entryY=0.5;entryDx=0;entryDy=0;exitX=1;exitY=0.5;exitDx=0;exitDy=0;" parent="1" source="2bgATZwEisg2KayfH_5u-100" target="2bgATZwEisg2KayfH_5u-5" edge="1">
                    <mxGeometry width="50" height="50" relative="1" as="geometry">
                        <mxPoint x="1100" y="510" as="sourcePoint"/>
                        <mxPoint x="1150" y="460" as="targetPoint"/>
                    </mxGeometry>
                </mxCell>
                <mxCell id="2bgATZwEisg2KayfH_5u-102" value="" style="endArrow=none;html=1;rounded=0;entryX=0;entryY=0.5;entryDx=0;entryDy=0;exitX=1;exitY=0.5;exitDx=0;exitDy=0;" parent="1" source="2bgATZwEisg2KayfH_5u-6" target="2bgATZwEisg2KayfH_5u-100" edge="1">
                    <mxGeometry width="50" height="50" relative="1" as="geometry">
                        <mxPoint x="980" y="520" as="sourcePoint"/>
                        <mxPoint x="1030" y="470" as="targetPoint"/>
                    </mxGeometry>
                </mxCell>
                <mxCell id="2bgATZwEisg2KayfH_5u-103" value="Fecha_contrato" style="ellipse;whiteSpace=wrap;html=1;" parent="1" vertex="1">
                    <mxGeometry x="1390" y="430" width="100" height="40" as="geometry"/>
                </mxCell>
                <mxCell id="2bgATZwEisg2KayfH_5u-109" style="edgeStyle=orthogonalEdgeStyle;rounded=0;orthogonalLoop=1;jettySize=auto;html=1;entryX=1;entryY=0.5;entryDx=0;entryDy=0;" parent="1" source="2bgATZwEisg2KayfH_5u-104" target="2bgATZwEisg2KayfH_5u-5" edge="1">
                    <mxGeometry relative="1" as="geometry"/>
                </mxCell>
                <mxCell id="2bgATZwEisg2KayfH_5u-104" value="Sueldo" style="ellipse;whiteSpace=wrap;html=1;" parent="1" vertex="1">
                    <mxGeometry x="1410" y="380" width="100" height="40" as="geometry"/>
                </mxCell>
                <mxCell id="2bgATZwEisg2KayfH_5u-108" style="edgeStyle=orthogonalEdgeStyle;rounded=0;orthogonalLoop=1;jettySize=auto;html=1;entryX=1;entryY=0.25;entryDx=0;entryDy=0;" parent="1" source="2bgATZwEisg2KayfH_5u-105" target="2bgATZwEisg2KayfH_5u-5" edge="1">
                    <mxGeometry relative="1" as="geometry"/>
                </mxCell>
                <mxCell id="2bgATZwEisg2KayfH_5u-105" value="DesempeÃ±o" style="ellipse;whiteSpace=wrap;html=1;" parent="1" vertex="1">
                    <mxGeometry x="1370" y="330" width="100" height="40" as="geometry"/>
                </mxCell>
                <mxCell id="2bgATZwEisg2KayfH_5u-106" value="&lt;u&gt;ID_puesto&lt;/u&gt;" style="ellipse;whiteSpace=wrap;html=1;" parent="1" vertex="1">
                    <mxGeometry x="1360" y="280" width="100" height="40" as="geometry"/>
                </mxCell>
                <mxCell id="2bgATZwEisg2KayfH_5u-107" style="edgeStyle=orthogonalEdgeStyle;rounded=0;orthogonalLoop=1;jettySize=auto;html=1;entryX=0.876;entryY=-0.057;entryDx=0;entryDy=0;entryPerimeter=0;" parent="1" source="2bgATZwEisg2KayfH_5u-106" target="2bgATZwEisg2KayfH_5u-5" edge="1">
                    <mxGeometry relative="1" as="geometry"/>
                </mxCell>
                <mxCell id="2bgATZwEisg2KayfH_5u-110" style="edgeStyle=orthogonalEdgeStyle;rounded=0;orthogonalLoop=1;jettySize=auto;html=1;entryX=0.919;entryY=1.086;entryDx=0;entryDy=0;entryPerimeter=0;" parent="1" source="2bgATZwEisg2KayfH_5u-103" target="2bgATZwEisg2KayfH_5u-5" edge="1">
                    <mxGeometry relative="1" as="geometry"/>
                </mxCell>
                <mxCell id="2bgATZwEisg2KayfH_5u-111" value="Realiza" style="rhombus;whiteSpace=wrap;html=1;" parent="1" vertex="1">
                    <mxGeometry x="485" y="-425" width="70" height="70" as="geometry"/>
                </mxCell>
                <mxCell id="2bgATZwEisg2KayfH_5u-112" value="Compran" style="rhombus;whiteSpace=wrap;html=1;" parent="1" vertex="1">
                    <mxGeometry x="1020" y="-550" width="70" height="70" as="geometry"/>
                </mxCell>
                <mxCell id="2bgATZwEisg2KayfH_5u-113" value="Realiza" style="rhombus;whiteSpace=wrap;html=1;" parent="1" vertex="1">
                    <mxGeometry x="665" y="-550" width="70" height="70" as="geometry"/>
                </mxCell>
                <mxCell id="2bgATZwEisg2KayfH_5u-115" value="Encuentran" style="rhombus;whiteSpace=wrap;html=1;" parent="1" vertex="1">
                    <mxGeometry x="780" y="515" width="70" height="70" as="geometry"/>
                </mxCell>
                <mxCell id="2bgATZwEisg2KayfH_5u-116" value="AÃ±aden" style="rhombus;whiteSpace=wrap;html=1;" parent="1" vertex="1">
                    <mxGeometry x="485" y="515" width="70" height="70" as="geometry"/>
                </mxCell>
                <mxCell id="2bgATZwEisg2KayfH_5u-117" value="Asisten" style="rhombus;whiteSpace=wrap;html=1;" parent="1" vertex="1">
                    <mxGeometry x="210" y="515" width="70" height="70" as="geometry"/>
                </mxCell>
                <mxCell id="2bgATZwEisg2KayfH_5u-128" style="edgeStyle=orthogonalEdgeStyle;rounded=0;orthogonalLoop=1;jettySize=auto;html=1;entryX=0;entryY=0.75;entryDx=0;entryDy=0;" parent="1" source="2bgATZwEisg2KayfH_5u-122" target="2bgATZwEisg2KayfH_5u-4" edge="1">
                    <mxGeometry relative="1" as="geometry"/>
                </mxCell>
                <mxCell id="2bgATZwEisg2KayfH_5u-122" value="Atencion_cliente" style="ellipse;whiteSpace=wrap;html=1;" parent="1" vertex="1">
                    <mxGeometry x="40" y="750" width="100" height="40" as="geometry"/>
                </mxCell>
                <mxCell id="2bgATZwEisg2KayfH_5u-127" style="edgeStyle=orthogonalEdgeStyle;rounded=0;orthogonalLoop=1;jettySize=auto;html=1;entryX=0;entryY=0.5;entryDx=0;entryDy=0;" parent="1" source="2bgATZwEisg2KayfH_5u-123" target="2bgATZwEisg2KayfH_5u-4" edge="1">
                    <mxGeometry relative="1" as="geometry"/>
                </mxCell>
                <mxCell id="2bgATZwEisg2KayfH_5u-123" value="Modificacion" style="ellipse;whiteSpace=wrap;html=1;" parent="1" vertex="1">
                    <mxGeometry x="40" y="690" width="100" height="40" as="geometry"/>
                </mxCell>
                <mxCell id="2bgATZwEisg2KayfH_5u-126" style="edgeStyle=orthogonalEdgeStyle;rounded=0;orthogonalLoop=1;jettySize=auto;html=1;entryX=0;entryY=0.25;entryDx=0;entryDy=0;" parent="1" source="2bgATZwEisg2KayfH_5u-124" target="2bgATZwEisg2KayfH_5u-4" edge="1">
                    <mxGeometry relative="1" as="geometry"/>
                </mxCell>
                <mxCell id="2bgATZwEisg2KayfH_5u-124" value="&lt;u&gt;ID_taller&lt;/u&gt;" style="ellipse;whiteSpace=wrap;html=1;" parent="1" vertex="1">
                    <mxGeometry x="40" y="640" width="100" height="40" as="geometry"/>
                </mxCell>
                <mxCell id="2bgATZwEisg2KayfH_5u-125" value="" style="endArrow=none;html=1;rounded=0;entryX=0.5;entryY=1;entryDx=0;entryDy=0;exitX=0.5;exitY=0;exitDx=0;exitDy=0;startArrow=none;startFill=0;" parent="1" source="2bgATZwEisg2KayfH_5u-4" target="2bgATZwEisg2KayfH_5u-117" edge="1">
                    <mxGeometry width="50" height="50" relative="1" as="geometry">
                        <mxPoint x="200" y="660" as="sourcePoint"/>
                        <mxPoint x="250" y="610" as="targetPoint"/>
                    </mxGeometry>
                </mxCell>
                <mxCell id="2bgATZwEisg2KayfH_5u-129" value="" style="endArrow=none;html=1;rounded=0;entryX=0.5;entryY=1;entryDx=0;entryDy=0;exitX=0.5;exitY=0;exitDx=0;exitDy=0;startArrow=none;startFill=0;" parent="1" source="2bgATZwEisg2KayfH_5u-2" target="2bgATZwEisg2KayfH_5u-116" edge="1">
                    <mxGeometry width="50" height="50" relative="1" as="geometry">
                        <mxPoint x="400" y="680" as="sourcePoint"/>
                        <mxPoint x="450" y="630" as="targetPoint"/>
                    </mxGeometry>
                </mxCell>
                <mxCell id="2bgATZwEisg2KayfH_5u-130" value="" style="endArrow=none;html=1;rounded=0;entryX=0.5;entryY=1;entryDx=0;entryDy=0;exitX=0.5;exitY=0;exitDx=0;exitDy=0;endFill=1;startFill=0;startArrow=none;" parent="1" source="2bgATZwEisg2KayfH_5u-3" target="2bgATZwEisg2KayfH_5u-115" edge="1">
                    <mxGeometry width="50" height="50" relative="1" as="geometry">
                        <mxPoint x="610" y="670" as="sourcePoint"/>
                        <mxPoint x="660" y="620" as="targetPoint"/>
                    </mxGeometry>
                </mxCell>
                <mxCell id="2bgATZwEisg2KayfH_5u-136" style="edgeStyle=orthogonalEdgeStyle;rounded=0;orthogonalLoop=1;jettySize=auto;html=1;entryX=1;entryY=0.75;entryDx=0;entryDy=0;" parent="1" source="2bgATZwEisg2KayfH_5u-131" target="2bgATZwEisg2KayfH_5u-3" edge="1">
                    <mxGeometry relative="1" as="geometry"/>
                </mxCell>
                <mxCell id="2bgATZwEisg2KayfH_5u-131" value="Ubicacion" style="ellipse;whiteSpace=wrap;html=1;" parent="1" vertex="1">
                    <mxGeometry x="930" y="740" width="100" height="40" as="geometry"/>
                </mxCell>
                <mxCell id="2bgATZwEisg2KayfH_5u-135" style="edgeStyle=orthogonalEdgeStyle;rounded=0;orthogonalLoop=1;jettySize=auto;html=1;entryX=1;entryY=0.5;entryDx=0;entryDy=0;" parent="1" source="2bgATZwEisg2KayfH_5u-132" target="2bgATZwEisg2KayfH_5u-3" edge="1">
                    <mxGeometry relative="1" as="geometry"/>
                </mxCell>
                <mxCell id="2bgATZwEisg2KayfH_5u-132" value="Cantidad" style="ellipse;whiteSpace=wrap;html=1;" parent="1" vertex="1">
                    <mxGeometry x="930" y="690" width="100" height="40" as="geometry"/>
                </mxCell>
                <mxCell id="2bgATZwEisg2KayfH_5u-134" style="edgeStyle=orthogonalEdgeStyle;rounded=0;orthogonalLoop=1;jettySize=auto;html=1;entryX=1;entryY=0.25;entryDx=0;entryDy=0;" parent="1" source="2bgATZwEisg2KayfH_5u-133" target="2bgATZwEisg2KayfH_5u-3" edge="1">
                    <mxGeometry relative="1" as="geometry"/>
                </mxCell>
                <mxCell id="2bgATZwEisg2KayfH_5u-133" value="&lt;u&gt;ID_deposito&lt;/u&gt;" style="ellipse;whiteSpace=wrap;html=1;" parent="1" vertex="1">
                    <mxGeometry x="930" y="640" width="100" height="40" as="geometry"/>
                </mxCell>
                <mxCell id="2bgATZwEisg2KayfH_5u-140" style="edgeStyle=orthogonalEdgeStyle;rounded=0;orthogonalLoop=1;jettySize=auto;html=1;entryX=1;entryY=0.5;entryDx=0;entryDy=0;" parent="1" source="2bgATZwEisg2KayfH_5u-137" target="2bgATZwEisg2KayfH_5u-2" edge="1">
                    <mxGeometry relative="1" as="geometry"/>
                </mxCell>
                <mxCell id="2bgATZwEisg2KayfH_5u-137" value="Cantidad" style="ellipse;whiteSpace=wrap;html=1;" parent="1" vertex="1">
                    <mxGeometry x="610" y="690" width="100" height="40" as="geometry"/>
                </mxCell>
                <mxCell id="2bgATZwEisg2KayfH_5u-138" value="Tipo_accesorio" style="ellipse;whiteSpace=wrap;html=1;" parent="1" vertex="1">
                    <mxGeometry x="350" y="720" width="100" height="40" as="geometry"/>
                </mxCell>
                <mxCell id="2bgATZwEisg2KayfH_5u-141" style="edgeStyle=orthogonalEdgeStyle;rounded=0;orthogonalLoop=1;jettySize=auto;html=1;entryX=0.25;entryY=0;entryDx=0;entryDy=0;" parent="1" source="2bgATZwEisg2KayfH_5u-139" target="2bgATZwEisg2KayfH_5u-2" edge="1">
                    <mxGeometry relative="1" as="geometry"/>
                </mxCell>
                <mxCell id="2bgATZwEisg2KayfH_5u-139" value="&lt;u&gt;ID_tienda&lt;/u&gt;" style="ellipse;whiteSpace=wrap;html=1;" parent="1" vertex="1">
                    <mxGeometry x="350" y="650" width="100" height="40" as="geometry"/>
                </mxCell>
                <mxCell id="2bgATZwEisg2KayfH_5u-142" style="edgeStyle=orthogonalEdgeStyle;rounded=0;orthogonalLoop=1;jettySize=auto;html=1;entryX=0.104;entryY=1.014;entryDx=0;entryDy=0;entryPerimeter=0;" parent="1" source="2bgATZwEisg2KayfH_5u-138" target="2bgATZwEisg2KayfH_5u-2" edge="1">
                    <mxGeometry relative="1" as="geometry"/>
                </mxCell>
                <mxCell id="2bgATZwEisg2KayfH_5u-164" style="edgeStyle=orthogonalEdgeStyle;rounded=0;orthogonalLoop=1;jettySize=auto;html=1;entryX=1;entryY=0.75;entryDx=0;entryDy=0;" parent="1" source="2bgATZwEisg2KayfH_5u-143" target="2bgATZwEisg2KayfH_5u-148" edge="1">
                    <mxGeometry relative="1" as="geometry"/>
                </mxCell>
                <mxCell id="2bgATZwEisg2KayfH_5u-143" value="Fecha_entrega" style="ellipse;whiteSpace=wrap;html=1;" parent="1" vertex="1">
                    <mxGeometry x="630" y="1070" width="100" height="40" as="geometry"/>
                </mxCell>
                <mxCell id="2bgATZwEisg2KayfH_5u-162" style="edgeStyle=orthogonalEdgeStyle;rounded=0;orthogonalLoop=1;jettySize=auto;html=1;entryX=0;entryY=0.25;entryDx=0;entryDy=0;" parent="1" source="2bgATZwEisg2KayfH_5u-144" target="2bgATZwEisg2KayfH_5u-148" edge="1">
                    <mxGeometry relative="1" as="geometry"/>
                </mxCell>
                <mxCell id="2bgATZwEisg2KayfH_5u-144" value="Cantidad" style="ellipse;whiteSpace=wrap;html=1;" parent="1" vertex="1">
                    <mxGeometry x="320" y="1000" width="100" height="40" as="geometry"/>
                </mxCell>
                <mxCell id="2IiFsOD-Vg7sES_q1M66-5" style="edgeStyle=orthogonalEdgeStyle;rounded=0;orthogonalLoop=1;jettySize=auto;html=1;" parent="1" source="2bgATZwEisg2KayfH_5u-145" target="2bgATZwEisg2KayfH_5u-1" edge="1">
                    <mxGeometry relative="1" as="geometry"/>
                </mxCell>
                <mxCell id="2bgATZwEisg2KayfH_5u-145" value="&lt;u&gt;ID_proveedor&lt;/u&gt;" style="ellipse;whiteSpace=wrap;html=1;" parent="1" vertex="1">
                    <mxGeometry x="480" y="1410" width="100" height="40" as="geometry"/>
                </mxCell>
                <mxCell id="2bgATZwEisg2KayfH_5u-169" style="edgeStyle=orthogonalEdgeStyle;rounded=0;orthogonalLoop=1;jettySize=auto;html=1;entryX=0.144;entryY=0.886;entryDx=0;entryDy=0;entryPerimeter=0;" parent="1" source="2bgATZwEisg2KayfH_5u-146" target="2bgATZwEisg2KayfH_5u-1" edge="1">
                    <mxGeometry relative="1" as="geometry"/>
                </mxCell>
                <mxCell id="2bgATZwEisg2KayfH_5u-146" value="Telefono" style="ellipse;whiteSpace=wrap;html=1;" parent="1" vertex="1">
                    <mxGeometry x="380" y="1390" width="100" height="40" as="geometry"/>
                </mxCell>
                <mxCell id="2bgATZwEisg2KayfH_5u-148" value="Pedido" style="rounded=0;whiteSpace=wrap;html=1;" parent="1" vertex="1">
                    <mxGeometry x="470" y="1040" width="100" height="40" as="geometry"/>
                </mxCell>
                <mxCell id="2bgATZwEisg2KayfH_5u-163" style="edgeStyle=orthogonalEdgeStyle;rounded=0;orthogonalLoop=1;jettySize=auto;html=1;entryX=0;entryY=0.75;entryDx=0;entryDy=0;" parent="1" source="2bgATZwEisg2KayfH_5u-149" target="2bgATZwEisg2KayfH_5u-148" edge="1">
                    <mxGeometry relative="1" as="geometry"/>
                </mxCell>
                <mxCell id="2bgATZwEisg2KayfH_5u-149" value="&lt;u&gt;ID_entrega&lt;/u&gt;" style="ellipse;whiteSpace=wrap;html=1;" parent="1" vertex="1">
                    <mxGeometry x="310" y="1070" width="100" height="40" as="geometry"/>
                </mxCell>
                <mxCell id="2IiFsOD-Vg7sES_q1M66-4" style="edgeStyle=orthogonalEdgeStyle;rounded=0;orthogonalLoop=1;jettySize=auto;html=1;entryX=1;entryY=0.25;entryDx=0;entryDy=0;" parent="1" source="2bgATZwEisg2KayfH_5u-150" target="2bgATZwEisg2KayfH_5u-148" edge="1">
                    <mxGeometry relative="1" as="geometry"/>
                </mxCell>
                <mxCell id="2bgATZwEisg2KayfH_5u-150" value="Producto" style="ellipse;whiteSpace=wrap;html=1;" parent="1" vertex="1">
                    <mxGeometry x="640" y="1020" width="100" height="40" as="geometry"/>
                </mxCell>
                <mxCell id="2bgATZwEisg2KayfH_5u-158" style="edgeStyle=orthogonalEdgeStyle;rounded=0;orthogonalLoop=1;jettySize=auto;html=1;entryX=0.5;entryY=0;entryDx=0;entryDy=0;endArrow=none;startFill=0;" parent="1" source="2bgATZwEisg2KayfH_5u-151" target="2bgATZwEisg2KayfH_5u-148" edge="1">
                    <mxGeometry relative="1" as="geometry"/>
                </mxCell>
                <mxCell id="2bgATZwEisg2KayfH_5u-151" value="Entrega" style="rhombus;whiteSpace=wrap;html=1;" parent="1" vertex="1">
                    <mxGeometry x="485" y="820" width="70" height="70" as="geometry"/>
                </mxCell>
                <mxCell id="2bgATZwEisg2KayfH_5u-161" style="edgeStyle=orthogonalEdgeStyle;rounded=0;orthogonalLoop=1;jettySize=auto;html=1;entryX=0.75;entryY=0;entryDx=0;entryDy=0;endArrow=none;startFill=0;" parent="1" source="2bgATZwEisg2KayfH_5u-152" target="2bgATZwEisg2KayfH_5u-148" edge="1">
                    <mxGeometry relative="1" as="geometry">
                        <Array as="points">
                            <mxPoint x="815" y="930"/>
                            <mxPoint x="545" y="930"/>
                        </Array>
                    </mxGeometry>
                </mxCell>
                <mxCell id="2bgATZwEisg2KayfH_5u-152" value="Entrega" style="rhombus;whiteSpace=wrap;html=1;" parent="1" vertex="1">
                    <mxGeometry x="780" y="820" width="70" height="70" as="geometry"/>
                </mxCell>
                <mxCell id="2bgATZwEisg2KayfH_5u-160" style="edgeStyle=orthogonalEdgeStyle;rounded=0;orthogonalLoop=1;jettySize=auto;html=1;entryX=0.25;entryY=0;entryDx=0;entryDy=0;endArrow=none;startFill=0;" parent="1" source="2bgATZwEisg2KayfH_5u-153" target="2bgATZwEisg2KayfH_5u-148" edge="1">
                    <mxGeometry relative="1" as="geometry">
                        <Array as="points">
                            <mxPoint x="245" y="930"/>
                            <mxPoint x="495" y="930"/>
                        </Array>
                    </mxGeometry>
                </mxCell>
                <mxCell id="2bgATZwEisg2KayfH_5u-153" value="Entrega" style="rhombus;whiteSpace=wrap;html=1;" parent="1" vertex="1">
                    <mxGeometry x="210" y="820" width="70" height="70" as="geometry"/>
                </mxCell>
                <mxCell id="2bgATZwEisg2KayfH_5u-154" value="" style="endArrow=classic;html=1;rounded=0;entryX=0.5;entryY=1;entryDx=0;entryDy=0;exitX=0.5;exitY=0;exitDx=0;exitDy=0;endFill=1;" parent="1" source="2bgATZwEisg2KayfH_5u-153" target="2bgATZwEisg2KayfH_5u-4" edge="1">
                    <mxGeometry width="50" height="50" relative="1" as="geometry">
                        <mxPoint x="110" y="880" as="sourcePoint"/>
                        <mxPoint x="160" y="830" as="targetPoint"/>
                    </mxGeometry>
                </mxCell>
                <mxCell id="2bgATZwEisg2KayfH_5u-155" value="" style="endArrow=classic;html=1;rounded=0;entryX=0.5;entryY=1;entryDx=0;entryDy=0;exitX=0.5;exitY=0;exitDx=0;exitDy=0;endFill=1;" parent="1" source="2bgATZwEisg2KayfH_5u-151" target="2bgATZwEisg2KayfH_5u-2" edge="1">
                    <mxGeometry width="50" height="50" relative="1" as="geometry">
                        <mxPoint x="360" y="910" as="sourcePoint"/>
                        <mxPoint x="410" y="860" as="targetPoint"/>
                    </mxGeometry>
                </mxCell>
                <mxCell id="2bgATZwEisg2KayfH_5u-156" value="" style="endArrow=classic;html=1;rounded=0;entryX=0.5;entryY=1;entryDx=0;entryDy=0;exitX=0.5;exitY=0;exitDx=0;exitDy=0;endFill=1;" parent="1" source="2bgATZwEisg2KayfH_5u-152" target="2bgATZwEisg2KayfH_5u-3" edge="1">
                    <mxGeometry width="50" height="50" relative="1" as="geometry">
                        <mxPoint x="620" y="870" as="sourcePoint"/>
                        <mxPoint x="670" y="820" as="targetPoint"/>
                    </mxGeometry>
                </mxCell>
                <mxCell id="2bgATZwEisg2KayfH_5u-165" value="Solicitan" style="rhombus;whiteSpace=wrap;html=1;" parent="1" vertex="1">
                    <mxGeometry x="485" y="1160" width="70" height="70" as="geometry"/>
                </mxCell>
                <mxCell id="2bgATZwEisg2KayfH_5u-166" value="" style="endArrow=classic;html=1;rounded=0;entryX=0.5;entryY=1;entryDx=0;entryDy=0;exitX=0.5;exitY=0;exitDx=0;exitDy=0;endFill=1;" parent="1" source="2bgATZwEisg2KayfH_5u-165" target="2bgATZwEisg2KayfH_5u-148" edge="1">
                    <mxGeometry width="50" height="50" relative="1" as="geometry">
                        <mxPoint x="340" y="1230" as="sourcePoint"/>
                        <mxPoint x="390" y="1180" as="targetPoint"/>
                    </mxGeometry>
                </mxCell>
                <mxCell id="2bgATZwEisg2KayfH_5u-167" value="" style="endArrow=none;html=1;rounded=0;entryX=0.5;entryY=1;entryDx=0;entryDy=0;exitX=0.5;exitY=0;exitDx=0;exitDy=0;" parent="1" source="2bgATZwEisg2KayfH_5u-1" target="2bgATZwEisg2KayfH_5u-165" edge="1">
                    <mxGeometry width="50" height="50" relative="1" as="geometry">
                        <mxPoint x="330" y="1300" as="sourcePoint"/>
                        <mxPoint x="380" y="1250" as="targetPoint"/>
                    </mxGeometry>
                </mxCell>
                <mxCell id="2bgATZwEisg2KayfH_5u-171" value="" style="endArrow=classic;html=1;rounded=0;entryX=0.5;entryY=0;entryDx=0;entryDy=0;exitX=0.5;exitY=1;exitDx=0;exitDy=0;" parent="1" source="2bgATZwEisg2KayfH_5u-111" target="2bgATZwEisg2KayfH_5u-51" edge="1">
                    <mxGeometry width="50" height="50" relative="1" as="geometry">
                        <mxPoint x="380" y="-360" as="sourcePoint"/>
                        <mxPoint x="430" y="-410" as="targetPoint"/>
                    </mxGeometry>
                </mxCell>
                <mxCell id="2bgATZwEisg2KayfH_5u-172" value="" style="endArrow=none;html=1;rounded=0;entryX=0.5;entryY=1;entryDx=0;entryDy=0;exitX=0.5;exitY=0;exitDx=0;exitDy=0;" parent="1" source="2bgATZwEisg2KayfH_5u-111" target="2bgATZwEisg2KayfH_5u-9" edge="1">
                    <mxGeometry width="50" height="50" relative="1" as="geometry">
                        <mxPoint x="400" y="-410" as="sourcePoint"/>
                        <mxPoint x="450" y="-460" as="targetPoint"/>
                    </mxGeometry>
                </mxCell>
                <mxCell id="2bgATZwEisg2KayfH_5u-173" value="" style="endArrow=classic;html=1;rounded=0;entryX=1;entryY=0.5;entryDx=0;entryDy=0;exitX=0;exitY=0.5;exitDx=0;exitDy=0;" parent="1" source="2bgATZwEisg2KayfH_5u-113" target="2bgATZwEisg2KayfH_5u-9" edge="1">
                    <mxGeometry width="50" height="50" relative="1" as="geometry">
                        <mxPoint x="650" y="-390" as="sourcePoint"/>
                        <mxPoint x="700" y="-440" as="targetPoint"/>
                    </mxGeometry>
                </mxCell>
                <mxCell id="2bgATZwEisg2KayfH_5u-174" value="" style="endArrow=none;html=1;rounded=0;entryX=0;entryY=0.5;entryDx=0;entryDy=0;exitX=1;exitY=0.5;exitDx=0;exitDy=0;" parent="1" source="2bgATZwEisg2KayfH_5u-113" target="2bgATZwEisg2KayfH_5u-8" edge="1">
                    <mxGeometry width="50" height="50" relative="1" as="geometry">
                        <mxPoint x="770" y="-390" as="sourcePoint"/>
                        <mxPoint x="820" y="-440" as="targetPoint"/>
                    </mxGeometry>
                </mxCell>
                <mxCell id="2bgATZwEisg2KayfH_5u-175" value="" style="endArrow=none;html=1;rounded=0;entryX=0;entryY=0.5;entryDx=0;entryDy=0;exitX=1;exitY=0.5;exitDx=0;exitDy=0;" parent="1" source="2bgATZwEisg2KayfH_5u-112" target="2bgATZwEisg2KayfH_5u-7" edge="1">
                    <mxGeometry width="50" height="50" relative="1" as="geometry">
                        <mxPoint x="1080" y="-380" as="sourcePoint"/>
                        <mxPoint x="1130" y="-430" as="targetPoint"/>
                    </mxGeometry>
                </mxCell>
                <mxCell id="2bgATZwEisg2KayfH_5u-176" value="" style="endArrow=classic;html=1;rounded=0;entryX=1;entryY=0.5;entryDx=0;entryDy=0;exitX=0;exitY=0.5;exitDx=0;exitDy=0;" parent="1" source="2bgATZwEisg2KayfH_5u-112" target="2bgATZwEisg2KayfH_5u-8" edge="1">
                    <mxGeometry width="50" height="50" relative="1" as="geometry">
                        <mxPoint x="930" y="-400" as="sourcePoint"/>
                        <mxPoint x="980" y="-450" as="targetPoint"/>
                    </mxGeometry>
                </mxCell>
                <mxCell id="2bgATZwEisg2KayfH_5u-178" style="edgeStyle=orthogonalEdgeStyle;rounded=0;orthogonalLoop=1;jettySize=auto;html=1;entryX=0.25;entryY=0;entryDx=0;entryDy=0;" parent="1" source="2bgATZwEisg2KayfH_5u-177" target="2bgATZwEisg2KayfH_5u-11" edge="1">
                    <mxGeometry relative="1" as="geometry"/>
                </mxCell>
                <mxCell id="2bgATZwEisg2KayfH_5u-177" value="Altura" style="ellipse;whiteSpace=wrap;html=1;" parent="1" vertex="1">
                    <mxGeometry x="-20" y="180" width="100" height="40" as="geometry"/>
                </mxCell>
                <mxCell id="2bgATZwEisg2KayfH_5u-192" style="edgeStyle=orthogonalEdgeStyle;rounded=0;orthogonalLoop=1;jettySize=auto;html=1;entryX=0.75;entryY=0;entryDx=0;entryDy=0;" parent="1" source="2bgATZwEisg2KayfH_5u-179" target="2bgATZwEisg2KayfH_5u-9" edge="1">
                    <mxGeometry relative="1" as="geometry"/>
                </mxCell>
                <mxCell id="2bgATZwEisg2KayfH_5u-179" value="Cuotas" style="ellipse;whiteSpace=wrap;html=1;" parent="1" vertex="1">
                    <mxGeometry x="550" y="-630" width="100" height="40" as="geometry"/>
                </mxCell>
                <mxCell id="2bgATZwEisg2KayfH_5u-191" style="edgeStyle=orthogonalEdgeStyle;rounded=0;orthogonalLoop=1;jettySize=auto;html=1;entryX=0.25;entryY=0;entryDx=0;entryDy=0;" parent="1" source="2bgATZwEisg2KayfH_5u-180" target="2bgATZwEisg2KayfH_5u-9" edge="1">
                    <mxGeometry relative="1" as="geometry"/>
                </mxCell>
                <mxCell id="2bgATZwEisg2KayfH_5u-180" value="&lt;u&gt;ID_financiamiento&lt;/u&gt;" style="ellipse;whiteSpace=wrap;html=1;" parent="1" vertex="1">
                    <mxGeometry x="400" y="-630" width="100" height="40" as="geometry"/>
                </mxCell>
                <mxCell id="2bgATZwEisg2KayfH_5u-190" style="edgeStyle=orthogonalEdgeStyle;rounded=0;orthogonalLoop=1;jettySize=auto;html=1;entryX=0.75;entryY=0;entryDx=0;entryDy=0;" parent="1" source="2bgATZwEisg2KayfH_5u-181" target="2bgATZwEisg2KayfH_5u-8" edge="1">
                    <mxGeometry relative="1" as="geometry"/>
                </mxCell>
                <mxCell id="2bgATZwEisg2KayfH_5u-181" value="Detalle" style="ellipse;whiteSpace=wrap;html=1;" parent="1" vertex="1">
                    <mxGeometry x="880" y="-624" width="100" height="40" as="geometry"/>
                </mxCell>
                <mxCell id="2bgATZwEisg2KayfH_5u-189" style="edgeStyle=orthogonalEdgeStyle;rounded=0;orthogonalLoop=1;jettySize=auto;html=1;entryX=0.25;entryY=0;entryDx=0;entryDy=0;" parent="1" source="2bgATZwEisg2KayfH_5u-182" target="2bgATZwEisg2KayfH_5u-8" edge="1">
                    <mxGeometry relative="1" as="geometry"/>
                </mxCell>
                <mxCell id="2bgATZwEisg2KayfH_5u-182" value="&lt;u&gt;ID_pago&lt;/u&gt;" style="ellipse;whiteSpace=wrap;html=1;" parent="1" vertex="1">
                    <mxGeometry x="750" y="-624" width="100" height="40" as="geometry"/>
                </mxCell>
                <mxCell id="2bgATZwEisg2KayfH_5u-183" value="Tipo_facturacion" style="ellipse;whiteSpace=wrap;html=1;" parent="1" vertex="1">
                    <mxGeometry x="1280" y="-630" width="100" height="40" as="geometry"/>
                </mxCell>
                <mxCell id="2bgATZwEisg2KayfH_5u-187" style="edgeStyle=orthogonalEdgeStyle;rounded=0;orthogonalLoop=1;jettySize=auto;html=1;entryX=0.5;entryY=0;entryDx=0;entryDy=0;" parent="1" source="2bgATZwEisg2KayfH_5u-184" target="2bgATZwEisg2KayfH_5u-7" edge="1">
                    <mxGeometry relative="1" as="geometry"/>
                </mxCell>
                <mxCell id="2bgATZwEisg2KayfH_5u-184" value="Fecha" style="ellipse;whiteSpace=wrap;html=1;" parent="1" vertex="1">
                    <mxGeometry x="1170" y="-664" width="100" height="40" as="geometry"/>
                </mxCell>
                <mxCell id="2bgATZwEisg2KayfH_5u-185" value="&lt;u&gt;ID_facturacion&lt;/u&gt;" style="ellipse;whiteSpace=wrap;html=1;" parent="1" vertex="1">
                    <mxGeometry x="1070" y="-624" width="100" height="40" as="geometry"/>
                </mxCell>
                <mxCell id="2bgATZwEisg2KayfH_5u-186" style="edgeStyle=orthogonalEdgeStyle;rounded=0;orthogonalLoop=1;jettySize=auto;html=1;entryX=0.133;entryY=-0.004;entryDx=0;entryDy=0;entryPerimeter=0;" parent="1" source="2bgATZwEisg2KayfH_5u-185" target="2bgATZwEisg2KayfH_5u-7" edge="1">
                    <mxGeometry relative="1" as="geometry"/>
                </mxCell>
                <mxCell id="2bgATZwEisg2KayfH_5u-188" style="edgeStyle=orthogonalEdgeStyle;rounded=0;orthogonalLoop=1;jettySize=auto;html=1;entryX=0.9;entryY=0.125;entryDx=0;entryDy=0;entryPerimeter=0;" parent="1" source="2bgATZwEisg2KayfH_5u-183" target="2bgATZwEisg2KayfH_5u-7" edge="1">
                    <mxGeometry relative="1" as="geometry"/>
                </mxCell>
                <mxCell id="2bgATZwEisg2KayfH_5u-79" value="" style="endArrow=classic;html=1;rounded=0;entryX=0.5;entryY=1;entryDx=0;entryDy=0;exitX=0.5;exitY=0;exitDx=0;exitDy=0;endFill=1;" parent="1" source="2bgATZwEisg2KayfH_5u-62" target="2bgATZwEisg2KayfH_5u-69" edge="1">
                    <mxGeometry width="50" height="50" relative="1" as="geometry">
                        <mxPoint x="450" y="80" as="sourcePoint"/>
                        <mxPoint x="500" y="30" as="targetPoint"/>
                    </mxGeometry>
                </mxCell>
                <mxCell id="2IiFsOD-Vg7sES_q1M66-2" value="Kilometraje" style="ellipse;whiteSpace=wrap;html=1;" parent="1" vertex="1">
                    <mxGeometry x="364" y="160" width="100" height="40" as="geometry"/>
                </mxCell>
                <mxCell id="2IiFsOD-Vg7sES_q1M66-3" style="edgeStyle=orthogonalEdgeStyle;rounded=0;orthogonalLoop=1;jettySize=auto;html=1;entryX=0.401;entryY=0.136;entryDx=0;entryDy=0;entryPerimeter=0;" parent="1" source="2IiFsOD-Vg7sES_q1M66-2" target="2bgATZwEisg2KayfH_5u-10" edge="1">
                    <mxGeometry relative="1" as="geometry"/>
                </mxCell>
                <mxCell id="2IiFsOD-Vg7sES_q1M66-6" value="Nombre_proveedor" style="ellipse;whiteSpace=wrap;html=1;" parent="1" vertex="1">
                    <mxGeometry x="580" y="1380" width="100" height="40" as="geometry"/>
                </mxCell>
                <mxCell id="2IiFsOD-Vg7sES_q1M66-7" style="edgeStyle=orthogonalEdgeStyle;rounded=0;orthogonalLoop=1;jettySize=auto;html=1;entryX=0.887;entryY=1.064;entryDx=0;entryDy=0;entryPerimeter=0;" parent="1" source="2IiFsOD-Vg7sES_q1M66-6" target="2bgATZwEisg2KayfH_5u-1" edge="1">
                    <mxGeometry relative="1" as="geometry"/>
                </mxCell>
            </root>
        </mxGraphModel>
    </diagram>
</mxfile>